<svg width="185" height="166" viewBox="0 0 185 166" fill="none" xmlns="http://www.w3.org/2000/svg">
<path d="M46.2719 119.661C71.1967 119.661 91.5026 139.808 91.7719 164.675H58.4135C58.1502 158.215 52.8153 153.032 46.2826 153.032C39.7501 153.032 34.4156 158.206 34.1527 164.675H0.772827C1.04204 139.808 21.3473 119.661 46.2719 119.661Z" fill="white" stroke="black"/>
<path d="M126.174 0.5C126.436 6.96988 131.771 12.1433 138.304 12.1436C144.836 12.1436 150.171 6.96011 150.434 0.5H183.804C183.535 25.368 163.229 45.5146 138.304 45.5146C113.379 45.5144 93.0736 25.3678 92.8046 0.5H126.174Z" fill="white" stroke="black"/>
<path d="M50.4316 0.510864H91.5703C91.3142 18.9831 76.2633 33.8817 57.7344 33.882H50.1143C41.6016 33.882 34.3373 40.4356 33.8828 48.92L33.8662 49.3253C33.615 58.2982 40.848 65.6856 49.7646 65.6857H49.8682L93.3008 65.8966V65.8976L135.242 66.1515H135.245C162.547 66.183 184.717 88.5458 184.455 115.917C184.193 143.051 161.671 164.719 134.526 164.719H93.3867C93.6427 146.246 108.694 131.348 127.224 131.348H134.844C143.485 131.348 150.839 124.887 151.091 115.904C151.342 106.931 144.109 99.5441 135.192 99.5441H135.101L94.7148 99.3107L49.7148 99.0782H49.7119C22.4115 99.0466 0.240238 76.4522 0.501953 49.3126C0.763806 22.179 23.2867 0.510864 50.4316 0.510864Z" fill="white" stroke="black"/>
</svg>
