<svg width="298" height="266" viewBox="0 0 298 266" fill="none" xmlns="http://www.w3.org/2000/svg">
<path d="M148.325 265.469H93.0958C93.0958 255.16 84.7102 246.755 74.3856 246.755C64.0609 246.755 55.6753 255.143 55.6753 265.469H0.429047C0.429047 224.689 33.5972 191.514 74.3686 191.514C115.14 191.514 148.308 224.689 148.308 265.469H148.325Z" fill="#212227"/>
<path d="M296.221 0H240.992C240.992 10.3098 232.606 18.7142 222.282 18.7142C211.957 18.7142 203.571 10.3268 203.571 0H148.342C148.342 40.7799 181.51 73.9551 222.282 73.9551C263.053 73.9551 296.221 40.7799 296.221 0Z" fill="#212227"/>
<path d="M217.111 160.789H217.281C231.16 160.789 242.421 172.29 242.029 186.257C241.638 200.225 230.208 210.297 216.72 210.297H204.473C173.992 210.297 149.278 235.016 149.278 265.503C149.278 265.503 149.278 265.538 149.312 265.538H216.209C260.263 265.538 296.833 230.372 297.259 186.308C297.684 141.871 261.692 105.565 217.366 105.514L149.958 105.106L80.1517 104.765H79.9816C66.102 104.765 54.8418 93.2647 55.233 79.2971C55.6072 65.8059 67.0545 55.2579 80.5429 55.2579H92.7896C123.27 55.2579 147.985 30.5381 147.985 0.0509936C147.985 0.0509936 147.985 0.0169678 147.951 0.0169678H81.0532C36.999 0.0169678 0.428993 35.1827 0.00376014 79.2461C-0.421473 123.31 35.5702 159.989 79.8965 160.04L152.22 160.415L217.128 160.789H217.111Z" fill="url(#paint0_linear_95_20026)"/>
<defs>
<linearGradient id="paint0_linear_95_20026" x1="2.53954e-05" y1="331.182" x2="282.219" y2="-31.4279" gradientUnits="userSpaceOnUse">
<stop/>
<stop offset="0.275075" stop-color="#212227"/>
<stop offset="0.477069" stop-color="#7135E5"/>
<stop offset="0.610674" stop-color="#B498EA"/>
<stop offset="0.733841" stop-color="#EFEFEF"/>
</linearGradient>
</defs>
</svg>
