<svg width="185" height="166" viewBox="0 0 185 166" fill="none" xmlns="http://www.w3.org/2000/svg">
<path d="M92.2883 165.176H57.9245C57.9245 158.761 52.707 153.532 46.2829 153.532C39.8589 153.532 34.6413 158.75 34.6413 165.176H0.266968C0.266968 139.802 20.9043 119.161 46.2723 119.161C71.6404 119.161 92.2777 139.802 92.2777 165.176H92.2883Z" fill="white"/>
<path d="M184.309 0H149.946C149.946 6.4148 144.728 11.644 138.304 11.644C131.88 11.644 126.663 6.42539 126.663 0H92.2987C92.2987 25.3734 112.936 46.0151 138.304 46.0151C163.672 46.0151 184.309 25.3734 184.309 0Z" fill="white"/>
<path d="M135.087 100.044H135.193C143.829 100.044 150.835 107.199 150.591 115.89C150.348 124.581 143.236 130.847 134.843 130.847H127.223C108.258 130.847 92.8809 146.228 92.8809 165.197C92.8809 165.197 92.8809 165.218 92.902 165.218H134.526C161.937 165.218 184.691 143.338 184.955 115.922C185.22 88.2726 162.826 65.6832 135.246 65.6514L93.3042 65.3974L49.8706 65.1857H49.7647C41.1288 65.1857 34.1227 58.0299 34.3661 49.3392C34.5989 40.9449 41.7215 34.3819 50.114 34.3819H57.7339C76.6991 34.3819 92.0765 19.0012 92.0765 0.0320352C92.0765 0.0320352 92.0765 0.0108643 92.0554 0.0108643H50.4315C23.0209 0.0108643 0.266902 21.8911 0.00232058 49.3074C-0.262261 76.7238 22.1319 99.5461 49.7118 99.5779L94.7118 99.8108L135.097 100.044H135.087Z" fill="white"/>
</svg>
