<svg width="185" height="165" viewBox="0 0 185 165" fill="none" xmlns="http://www.w3.org/2000/svg">
<path d="M92.1664 164.958H57.8479C57.8479 158.551 52.6373 153.329 46.2217 153.329C39.8062 153.329 34.5955 158.541 34.5955 164.958H0.266556C0.266556 139.618 20.8766 119.003 46.2112 119.003C71.5457 119.003 92.1558 139.618 92.1558 164.958H92.1664Z" fill="black"/>
<path d="M184.066 0H149.748C149.748 6.40633 144.537 11.6287 138.122 11.6287C131.706 11.6287 126.495 6.4169 126.495 0H92.1769C92.1769 25.3399 112.787 45.9543 138.122 45.9543C163.456 45.9543 184.066 25.3399 184.066 0Z" fill="black"/>
<path d="M134.908 99.9115H135.014C143.639 99.9115 150.636 107.058 150.392 115.737C150.149 124.416 143.047 130.675 134.665 130.675H127.056C108.115 130.675 92.7582 146.035 92.7582 164.979C92.7582 164.979 92.7582 165 92.7794 165H134.348C161.723 165 184.447 143.149 184.711 115.769C184.975 88.1559 162.611 65.5964 135.067 65.5646L93.181 65.3109L49.8047 65.0995H49.699C41.0745 65.0995 34.0776 57.9532 34.3207 49.274C34.5533 40.8907 41.6664 34.3364 50.0478 34.3364H57.6577C76.5978 34.3364 91.955 18.976 91.955 0.0318852C91.955 0.0318852 91.955 0.0107422 91.9338 0.0107422H50.3649C22.9905 0.0107422 0.266549 21.862 0.00231752 49.2422C-0.261914 76.6224 22.1027 99.4146 49.6462 99.4463L94.5867 99.6789L134.919 99.9115H134.908Z" fill="#7135E5"/>
</svg>
