<svg width="707" height="370" viewBox="0 0 707 370" fill="none" xmlns="http://www.w3.org/2000/svg">
<rect width="707" height="369.695" fill="white"/>
<path d="M188.262 293.822H142.737C142.737 285.324 135.825 278.396 127.315 278.396C118.804 278.396 111.892 285.31 111.892 293.822H66.3535C66.3535 260.208 93.6935 232.862 127.301 232.862C160.908 232.862 188.248 260.208 188.248 293.822H188.262Z" fill="#212227"/>
<path d="M310.17 75H264.646C264.646 83.4982 257.733 90.4258 249.223 90.4258C240.713 90.4258 233.8 83.5122 233.8 75H188.276C188.276 108.614 215.616 135.96 249.223 135.96C282.83 135.96 310.17 108.614 310.17 75Z" fill="#212227"/>
<path d="M244.961 207.535H245.101C256.542 207.535 265.823 217.015 265.501 228.529C265.178 240.042 255.757 248.344 244.638 248.344H234.544C209.419 248.344 189.047 268.72 189.047 293.85C189.047 293.85 189.047 293.878 189.075 293.878H244.218C280.531 293.878 310.675 264.891 311.025 228.571C311.376 191.941 281.709 162.015 245.171 161.973L189.608 161.637L132.068 161.356H131.928C120.487 161.356 111.205 151.876 111.528 140.363C111.836 129.242 121.272 120.548 132.39 120.548H142.485C167.61 120.548 187.981 100.172 187.981 75.0417C187.981 75.0417 187.981 75.0137 187.953 75.0137H132.811C96.4977 75.0137 66.3536 104 66.0031 140.321C65.6526 176.642 95.3199 206.876 131.857 206.918L191.473 207.227L244.975 207.535H244.961Z" fill="url(#paint0_linear_627_53)"/>
<path d="M327.431 105.088C327.431 98.6968 328.933 93.1624 331.925 88.4989C334.93 83.8354 338.666 80.408 343.132 78.2448C347.597 76.0816 352.4 75 357.512 75C361.346 75 365.04 75.6461 368.593 76.9244C372.146 78.2027 375.362 80.0709 378.213 82.515C381.078 84.9591 383.367 88.1337 385.094 92.0106C386.822 95.9015 387.678 100.256 387.678 105.102C387.678 109.948 386.836 114.485 385.136 118.39C383.437 122.295 381.148 125.47 378.269 127.886C375.376 130.302 372.174 132.156 368.649 133.434C365.124 134.713 361.417 135.345 357.526 135.345C354.521 135.345 351.6 134.951 348.735 134.179C345.87 133.406 343.146 132.198 340.576 130.555C337.992 128.911 335.731 126.931 333.778 124.599C331.826 122.267 330.296 119.416 329.158 116.059C328.021 112.701 327.445 109.049 327.445 105.102L327.431 105.088ZM372.188 105.088C372.188 100.144 370.742 96.2808 367.849 93.4995C364.956 90.7183 361.543 89.3277 357.597 89.3277C353.65 89.3277 350.153 90.7183 347.26 93.4995C344.367 96.2808 342.921 100.144 342.921 105.088C342.921 110.033 344.367 113.994 347.26 116.803C350.153 119.612 353.566 121.017 357.512 121.017C361.459 121.017 364.885 119.612 367.806 116.803C370.728 113.994 372.188 110.089 372.188 105.088Z" fill="#212227"/>
<path d="M391.021 75.9971H415.19C422.296 75.9971 427.914 77.9917 432.029 81.995C436.144 85.9983 438.194 91.2518 438.194 97.7414C438.194 104.231 436.186 109.414 432.155 113.249C428.125 117.084 422.563 118.994 415.443 118.994H406.188V134.333H391.021V75.9971ZM406.188 105.678H414.109C416.833 105.678 418.954 104.961 420.485 103.515C422.016 102.068 422.774 100.101 422.774 97.6009C422.774 95.1006 422.002 93.1762 420.443 91.6451C418.884 90.114 416.749 89.3555 414.025 89.3555H406.188V105.692V105.678Z" fill="#212227"/>
<path d="M478.429 75.9971V89.3274H457.181V97.5869H476.674V110.833H457.181V121.087H479.188V134.333H442.028V75.9971H478.443H478.429Z" fill="#212227"/>
<path d="M527.681 134.347L498.09 105.678V134.347H482.839V75.9971H488.26L517.766 104.582V75.9971H533.017V134.347H527.681Z" fill="#7135E5"/>
<path d="M582.845 134.347L553.254 105.678V134.347H538.003V75.9971H543.424L572.93 104.582V75.9971H588.181V134.347H582.845Z" fill="#7135E5"/>
<path d="M326.602 195.717H341.264C341.488 197.599 342.528 199.032 344.395 200.015C346.249 200.985 348.552 201.476 351.263 201.476C356.768 201.476 359.521 199.861 359.521 196.644C359.521 194.425 357.386 192.978 353.103 192.304L344.929 190.969C333.315 189.129 327.515 183.272 327.515 173.383C327.515 167.82 329.65 163.283 333.933 159.758C338.216 156.232 343.483 154.462 349.76 154.462C356.038 154.462 361.473 156.162 365.714 159.547C369.955 162.932 372.118 167.666 372.174 173.72H358.004C357.779 171.894 356.965 170.447 355.546 169.394C354.128 168.34 352.176 167.806 349.676 167.806C347.176 167.806 345.379 168.368 343.974 169.478C342.57 170.588 341.854 171.866 341.854 173.313C341.854 176.094 344.438 177.864 349.606 178.65L357.105 179.732C368.382 181.347 374.028 186.98 374.028 196.658C374.028 202.108 372.048 206.491 368.115 209.834C364.169 213.163 358.566 214.835 351.277 214.835C343.988 214.835 338.188 213.233 333.694 210.045C329.186 206.856 326.827 202.08 326.616 195.745L326.602 195.717Z" fill="#212227"/>
<path d="M375.517 184.536C375.517 178.145 377.019 172.611 380.011 167.947C383.016 163.284 386.752 159.856 391.218 157.693C395.683 155.53 400.486 154.448 405.598 154.448C409.432 154.448 413.126 155.094 416.679 156.373C420.232 157.651 423.448 159.519 426.299 161.963C429.164 164.407 431.453 167.582 433.18 171.459C434.908 175.35 435.764 179.704 435.764 184.55C435.764 189.396 434.922 193.934 433.222 197.839C431.523 201.744 429.234 204.918 426.355 207.334C423.462 209.75 420.26 211.604 416.735 212.883C413.21 214.161 409.502 214.793 405.612 214.793C402.607 214.793 399.686 214.4 396.821 213.627C393.956 212.855 391.232 211.647 388.662 210.003C386.078 208.36 383.816 206.379 381.864 204.047C379.912 201.715 378.382 198.864 377.244 195.507C376.106 192.15 375.531 188.497 375.531 184.55L375.517 184.536ZM420.274 184.536C420.274 179.592 418.828 175.729 415.935 172.948C413.042 170.167 409.629 168.776 405.683 168.776C401.736 168.776 398.239 170.167 395.346 172.948C392.453 175.729 391.007 179.592 391.007 184.536C391.007 189.481 392.453 193.442 395.346 196.251C398.239 199.061 401.652 200.465 405.598 200.465C409.545 200.465 412.971 199.061 415.892 196.251C418.814 193.442 420.274 189.537 420.274 184.536Z" fill="#212227"/>
<path d="M438.938 191.883V155.459H454.19V191.546C454.19 194.383 454.976 196.574 456.563 198.133C458.15 199.693 460.327 200.465 463.107 200.465C465.888 200.465 468.121 199.693 469.652 198.133C471.182 196.574 471.941 194.411 471.941 191.63V155.459H486.855V192.051C486.855 199.271 484.791 204.876 480.648 208.851C476.505 212.826 470.635 214.807 463.023 214.807C455.411 214.807 449.569 212.812 445.314 208.809C441.059 204.806 438.938 199.173 438.938 191.897V191.883Z" fill="#212227"/>
<path d="M529.605 192.374L541.275 211.632V213.795H524.605L514.606 196.63H506.854V213.795H491.687V155.445H515.94C522.667 155.445 528.088 157.384 532.231 161.233C536.374 165.095 538.438 170.026 538.438 176.024C538.438 183.469 535.489 188.919 529.605 192.36V192.374ZM506.854 183.37H515.266C517.71 183.37 519.606 182.724 520.968 181.418C522.33 180.111 523.004 178.341 523.004 176.122C523.004 173.903 522.302 172.189 520.883 170.826C519.465 169.464 517.569 168.79 515.182 168.79H506.854V183.37Z" fill="#212227"/>
<path d="M572.185 214.793C569.18 214.793 566.259 214.4 563.394 213.627C560.529 212.855 557.804 211.647 555.234 210.003C552.65 208.36 550.389 206.379 548.437 204.047C546.485 201.716 544.954 198.864 543.817 195.507C542.679 192.15 542.104 188.498 542.104 184.55C542.104 178.159 543.606 172.625 546.598 167.961C549.603 163.298 553.339 159.87 557.804 157.707C562.27 155.544 567.073 154.462 572.185 154.462C577.747 154.462 582.606 155.544 586.763 157.707C590.316 159.547 593.293 162.118 595.68 165.461C598.068 168.79 599.458 172.625 599.851 176.965H584.347C582.184 171.515 578.154 168.79 572.269 168.79C567.986 168.79 564.475 170.237 561.723 173.13C558.97 176.024 557.594 179.859 557.594 184.635C557.594 189.031 558.984 192.768 561.765 195.844C564.545 198.934 568.014 200.465 572.185 200.465C578.519 200.465 582.746 197.431 584.853 191.377H600.188C599.964 195.549 598.686 199.37 596.355 202.839C594.023 206.309 590.99 209.132 587.268 211.295C583.322 213.627 578.294 214.793 572.185 214.793Z" fill="#212227"/>
<path d="M639.932 155.446V168.776H618.684V177.036H638.177V190.282H618.684V200.536H640.691V213.782H603.531V155.432H639.946L639.932 155.446Z" fill="#212227"/>
<path d="M357.105 294.255C354.1 294.255 351.179 293.862 348.314 293.09C345.449 292.317 342.724 291.109 340.154 289.466C337.57 287.822 335.309 285.842 333.357 283.51C331.405 281.178 329.874 278.327 328.737 274.969C327.599 271.612 327.023 267.96 327.023 264.013C327.023 257.622 328.526 252.087 331.517 247.424C334.523 242.76 338.258 239.333 342.724 237.17C347.19 235.006 351.993 233.925 357.105 233.925C362.666 233.925 367.526 235.006 371.683 237.17C375.236 239.01 378.213 241.58 380.6 244.923C382.988 248.252 384.378 252.087 384.771 256.428H369.267C367.104 250.978 363.074 248.252 357.189 248.252C352.906 248.252 349.395 249.699 346.643 252.593C343.89 255.487 342.514 259.321 342.514 264.097C342.514 268.494 343.904 272.23 346.685 275.306C349.465 278.397 352.934 279.928 357.105 279.928C363.439 279.928 367.666 276.894 369.773 270.84H385.108C384.884 275.011 383.606 278.832 381.274 282.302C378.943 285.771 375.91 288.595 372.188 290.758C368.242 293.09 363.214 294.255 357.105 294.255Z" fill="#212227"/>
<path d="M403.604 234.908V279.998H424.6V293.244H388.437V234.894H403.604V234.908Z" fill="#212227"/>
<path d="M428.265 271.331V234.908H443.516V270.994C443.516 273.832 444.303 276.023 445.89 277.582C447.477 279.141 449.653 279.914 452.434 279.914C455.215 279.914 457.448 279.141 458.978 277.582C460.509 276.023 461.267 273.86 461.267 271.079V234.908H476.182V271.5C476.182 278.72 474.118 284.325 469.975 288.3C465.832 292.275 459.961 294.256 452.35 294.256C444.738 294.256 438.896 292.261 434.641 288.258C430.385 284.254 428.265 278.622 428.265 271.345V271.331Z" fill="#212227"/>
<path d="M524.689 252.073C524.689 256.681 523.018 260.333 519.69 262.987C524.633 265.769 527.105 270.067 527.105 275.91C527.105 281.08 525.434 285.266 522.105 288.454C518.777 291.657 513.904 293.244 507.528 293.244H481.027V234.894H505.197C511.081 234.894 515.814 236.552 519.367 239.853C522.92 243.154 524.703 247.227 524.703 252.059L524.689 252.073ZM504.101 248.238H496.181V257.664H504.185C505.744 257.664 506.966 257.242 507.851 256.414C508.736 255.585 509.185 254.447 509.185 253C509.185 251.553 508.722 250.472 507.809 249.587C506.896 248.702 505.66 248.252 504.101 248.252V248.238ZM496.181 279.998H506.433C508.104 279.998 509.396 279.549 510.309 278.664C511.221 277.779 511.685 276.585 511.685 275.082C511.685 273.579 511.207 272.371 510.266 271.458C509.326 270.545 508.019 270.081 506.348 270.081H496.181V279.998Z" fill="#212227"/>
<defs>
<linearGradient id="paint0_linear_627_53" x1="66" y1="347.987" x2="298.628" y2="49.0942" gradientUnits="userSpaceOnUse">
<stop/>
<stop offset="0.275075" stop-color="#212227"/>
<stop offset="0.477069" stop-color="#7135E5"/>
<stop offset="0.610674" stop-color="#B498EA"/>
<stop offset="0.733841" stop-color="#EFEFEF"/>
</linearGradient>
</defs>
</svg>
