<svg width="575" height="220" viewBox="0 0 575 220" fill="none" xmlns="http://www.w3.org/2000/svg">
<path d="M122.262 218.822H76.7373C76.7373 210.324 69.8252 203.396 61.3148 203.396C52.8043 203.396 45.8922 210.31 45.8922 218.822H0.353607C0.353607 185.208 27.6936 157.862 61.3007 157.862C94.9079 157.862 122.248 185.208 122.248 218.822H122.262Z" fill="black"/>
<path d="M244.17 3.05176e-05H198.646C198.646 8.49825 191.734 15.4258 183.223 15.4258C174.713 15.4258 167.8 8.51228 167.8 3.05176e-05H122.276C122.276 33.6143 149.616 60.96 183.223 60.96C216.83 60.96 244.17 33.6143 244.17 3.05176e-05Z" fill="black"/>
<path d="M178.961 132.536H179.101C190.542 132.536 199.823 142.016 199.501 153.529C199.178 165.042 189.757 173.344 178.638 173.344H168.544C143.419 173.344 123.047 193.72 123.047 218.85C123.047 218.85 123.047 218.878 123.075 218.878H178.218C214.531 218.878 244.675 189.892 245.025 153.571C245.376 116.942 215.709 87.0157 179.171 86.9736L123.608 86.637L66.0677 86.3566H65.9275C54.4868 86.3566 45.2052 76.8767 45.5277 65.3634C45.8361 54.2428 55.2719 45.5483 66.3902 45.5483H76.4849C101.61 45.5483 121.981 25.1722 121.981 0.0421003C121.981 0.0421003 121.981 0.0140533 121.953 0.0140533H66.8108C30.4977 0.0140533 0.353587 29.0006 0.00307427 65.3214C-0.347438 101.642 29.3199 131.877 65.8574 131.919L125.473 132.227L178.975 132.536H178.961Z" fill="#7135E5"/>
<path d="M261.431 30.0881C261.431 23.6968 262.933 18.1624 265.925 13.4989C268.93 8.83539 272.666 5.40799 277.132 3.24479C281.598 1.0816 286.401 0 291.513 0C295.346 0 299.04 0.646149 302.593 1.9244C306.146 3.20265 309.362 5.07087 312.213 7.515C315.078 9.95913 317.367 13.1337 319.094 17.0106C320.822 20.9015 321.679 25.256 321.679 30.1021C321.679 34.9482 320.836 39.4853 319.137 43.3903C317.437 47.2953 315.148 50.4699 312.269 52.8859C309.376 55.302 306.174 57.1561 302.649 58.4344C299.124 59.7126 295.417 60.3447 291.527 60.3447C288.521 60.3447 285.6 59.9514 282.735 59.1788C279.87 58.4063 277.146 57.1983 274.576 55.5548C271.992 53.9113 269.731 51.9307 267.779 49.599C265.826 47.2672 264.296 44.4157 263.158 41.0586C262.021 37.7014 261.445 34.0493 261.445 30.1021L261.431 30.0881ZM306.188 30.0881C306.188 25.1436 304.742 21.2808 301.849 18.4995C298.956 15.7183 295.543 14.3277 291.597 14.3277C287.65 14.3277 284.154 15.7183 281.261 18.4995C278.368 21.2808 276.921 25.1436 276.921 30.0881C276.921 35.0325 278.368 38.9937 281.261 41.8031C284.154 44.6124 287.566 46.0171 291.513 46.0171C295.459 46.0171 298.885 44.6124 301.807 41.8031C304.728 38.9937 306.188 35.0887 306.188 30.0881Z" fill="black"/>
<path d="M325.021 0.997345H349.19C356.296 0.997345 361.914 2.99198 366.029 6.9953C370.144 10.9986 372.194 16.2521 372.194 22.7417C372.194 29.2313 370.186 34.4145 366.155 38.2493C362.125 42.084 356.563 43.9944 349.443 43.9944H340.188V59.3334H325.021V0.997345ZM340.188 30.6781H348.109C350.833 30.6781 352.954 29.9617 354.485 28.5149C356.016 27.0681 356.774 25.1015 356.774 22.6012C356.774 20.1009 356.001 18.1765 354.443 16.6454C352.884 15.1143 350.749 14.3558 348.025 14.3558H340.188V30.6921V30.6781Z" fill="black"/>
<path d="M412.429 0.997345V14.3277H391.181V22.5872H410.674V35.8332H391.181V46.0873H413.188V59.3334H376.028V0.997345H412.443H412.429Z" fill="black"/>
<path d="M461.681 59.3474L432.091 30.6781V59.3474H416.839V0.997345H422.26L451.766 29.5824V0.997345H467.017V59.3474H461.681Z" fill="#7135E5"/>
<path d="M516.845 59.3474L487.254 30.6781V59.3474H472.003V0.997345H477.424L506.93 29.5824V0.997345H522.181V59.3474H516.845Z" fill="#7135E5"/>
<path d="M260.602 120.717H275.264C275.489 122.6 276.528 124.032 278.396 125.016C280.249 125.985 282.553 126.477 285.263 126.477C290.768 126.477 293.521 124.861 293.521 121.644C293.521 119.425 291.386 117.978 287.103 117.304L278.929 115.97C267.315 114.129 261.515 108.272 261.515 98.3831C261.515 92.8206 263.65 88.2835 267.933 84.7578C272.216 81.232 277.483 79.4621 283.76 79.4621C290.038 79.4621 295.473 81.1618 299.714 84.5471C303.955 87.9323 306.118 92.6661 306.174 98.7202H292.004C291.779 96.8941 290.965 95.4473 289.546 94.3938C288.128 93.3403 286.176 92.8065 283.676 92.8065C281.176 92.8065 279.379 93.3684 277.974 94.4781C276.57 95.5878 275.854 96.866 275.854 98.3128C275.854 101.094 278.438 102.864 283.606 103.651L291.105 104.732C302.382 106.348 308.028 111.98 308.028 121.659C308.028 127.109 306.048 131.491 302.116 134.834C298.169 138.163 292.566 139.835 285.277 139.835C277.988 139.835 272.188 138.234 267.694 135.045C263.186 131.856 260.827 127.081 260.616 120.745L260.602 120.717Z" fill="black"/>
<path d="M309.517 109.536C309.517 103.145 311.019 97.6107 314.011 92.9472C317.016 88.2837 320.752 84.8563 325.218 82.6931C329.683 80.5299 334.486 79.4483 339.598 79.4483C343.432 79.4483 347.126 80.0945 350.679 81.3727C354.232 82.651 357.448 84.5192 360.299 86.9633C363.164 89.4074 365.453 92.582 367.18 96.4589C368.908 100.35 369.764 104.704 369.764 109.55C369.764 114.397 368.922 118.934 367.222 122.839C365.523 126.744 363.234 129.918 360.355 132.334C357.462 134.75 354.26 136.604 350.735 137.883C347.21 139.161 343.503 139.793 339.612 139.793C336.607 139.793 333.686 139.4 330.821 138.627C327.956 137.855 325.232 136.647 322.662 135.003C320.078 133.36 317.817 131.379 315.864 129.047C313.912 126.716 312.382 123.864 311.244 120.507C310.106 117.15 309.531 113.498 309.531 109.55L309.517 109.536ZM354.274 109.536C354.274 104.592 352.828 100.729 349.935 97.9478C347.042 95.1666 343.629 93.776 339.683 93.776C335.736 93.776 332.239 95.1666 329.346 97.9478C326.453 100.729 325.007 104.592 325.007 109.536C325.007 114.481 326.453 118.442 329.346 121.251C332.239 124.061 335.652 125.465 339.598 125.465C343.545 125.465 346.971 124.061 349.892 121.251C352.814 118.442 354.274 114.537 354.274 109.536Z" fill="black"/>
<path d="M372.938 116.883V80.4597H388.19V116.546C388.19 119.383 388.976 121.574 390.563 123.134C392.15 124.693 394.327 125.465 397.108 125.465C399.888 125.465 402.121 124.693 403.652 123.134C405.183 121.574 405.941 119.411 405.941 116.63V80.4597H420.856V117.051C420.856 124.271 418.791 129.876 414.648 133.851C410.505 137.826 404.635 139.807 397.023 139.807C389.412 139.807 383.569 137.812 379.314 133.809C375.059 129.806 372.938 124.173 372.938 116.897V116.883Z" fill="black"/>
<path d="M463.605 117.374L475.275 136.632V138.796H458.605L448.606 121.631H440.854V138.796H425.687V80.4456H449.94C456.667 80.4456 462.088 82.384 466.231 86.2329C470.374 90.0957 472.438 95.0261 472.438 101.024C472.438 108.469 469.489 113.919 463.605 117.36V117.374ZM440.854 108.37H449.266C451.71 108.37 453.606 107.724 454.968 106.418C456.33 105.112 457.004 103.342 457.004 101.122C457.004 98.903 456.302 97.1893 454.884 95.8268C453.465 94.4642 451.569 93.79 449.182 93.79H440.854V108.37Z" fill="black"/>
<path d="M506.185 139.793C503.18 139.793 500.259 139.4 497.394 138.627C494.529 137.855 491.805 136.647 489.235 135.003C486.651 133.36 484.39 131.379 482.437 129.047C480.485 126.716 478.955 123.864 477.817 120.507C476.679 117.15 476.104 113.498 476.104 109.55C476.104 103.159 477.606 97.6248 480.598 92.9612C483.603 88.2977 487.339 84.8703 491.805 82.7071C496.271 80.5439 501.073 79.4623 506.185 79.4623C511.747 79.4623 516.606 80.5439 520.763 82.7071C524.316 84.5473 527.293 87.1178 529.681 90.4609C532.068 93.79 533.458 97.6248 533.852 101.965H518.347C516.185 96.5151 512.154 93.79 506.27 93.79C501.986 93.79 498.475 95.2368 495.723 98.1304C492.97 101.024 491.594 104.859 491.594 109.635C491.594 114.031 492.984 117.768 495.765 120.844C498.546 123.934 502.014 125.465 506.185 125.465C512.519 125.465 516.746 122.431 518.853 116.377H534.189C533.964 120.549 532.686 124.37 530.355 127.839C528.023 131.309 524.99 134.132 521.268 136.295C517.322 138.627 512.294 139.793 506.185 139.793Z" fill="black"/>
<path d="M573.932 80.4456V93.776H552.684V102.035H572.177V115.281H552.684V125.536H574.691V138.782H537.531V80.4316H573.947L573.932 80.4456Z" fill="black"/>
<path d="M291.105 219.255C288.1 219.255 285.179 218.862 282.314 218.089C279.449 217.317 276.724 216.109 274.154 214.465C271.57 212.822 269.309 210.841 267.357 208.51C265.405 206.178 263.874 203.326 262.737 199.969C261.599 196.612 261.024 192.96 261.024 189.013C261.024 182.622 262.526 177.087 265.518 172.424C268.523 167.76 272.259 164.333 276.724 162.169C281.19 160.006 285.993 158.925 291.105 158.925C296.667 158.925 301.526 160.006 305.683 162.169C309.236 164.01 312.213 166.58 314.6 169.923C316.988 173.252 318.378 177.087 318.771 181.428H303.267C301.104 175.977 297.074 173.252 291.19 173.252C286.906 173.252 283.395 174.699 280.643 177.593C277.89 180.486 276.514 184.321 276.514 189.097C276.514 193.494 277.904 197.23 280.685 200.306C283.465 203.397 286.934 204.928 291.105 204.928C297.439 204.928 301.666 201.894 303.773 195.839H319.109C318.884 200.011 317.606 203.832 315.275 207.302C312.943 210.771 309.91 213.595 306.188 215.758C302.242 218.089 297.214 219.255 291.105 219.255Z" fill="black"/>
<path d="M337.604 159.908V204.998H358.6V218.244H322.437V159.894H337.604V159.908Z" fill="black"/>
<path d="M362.265 196.331V159.908H377.517V195.994C377.517 198.831 378.303 201.023 379.89 202.582C381.477 204.141 383.654 204.914 386.434 204.914C389.215 204.914 391.448 204.141 392.979 202.582C394.509 201.023 395.268 198.86 395.268 196.078V159.908H410.182V196.5C410.182 203.72 408.118 209.324 403.975 213.3C399.832 217.275 393.962 219.255 386.35 219.255C378.738 219.255 372.896 217.261 368.641 213.257C364.386 209.254 362.265 203.621 362.265 196.345V196.331Z" fill="black"/>
<path d="M458.689 177.073C458.689 181.68 457.018 185.333 453.69 187.987C458.633 190.769 461.105 195.067 461.105 200.91C461.105 206.08 459.434 210.265 456.105 213.454C452.777 216.657 447.904 218.244 441.528 218.244H415.027V159.894H439.197C445.081 159.894 449.814 161.551 453.367 164.852C456.92 168.153 458.703 172.227 458.703 177.059L458.689 177.073ZM438.101 173.238H430.181V182.664H438.186C439.744 182.664 440.966 182.242 441.851 181.413C442.736 180.585 443.185 179.447 443.185 178C443.185 176.553 442.722 175.472 441.809 174.587C440.896 173.702 439.66 173.252 438.101 173.252V173.238ZM430.181 204.998H440.433C442.104 204.998 443.396 204.548 444.309 203.663C445.221 202.779 445.685 201.585 445.685 200.082C445.685 198.579 445.207 197.371 444.267 196.458C443.326 195.544 442.02 195.081 440.348 195.081H430.181V204.998Z" fill="black"/>
</svg>
