<svg width="186" height="186" viewBox="0 0 186 186" fill="none" xmlns="http://www.w3.org/2000/svg">
<path d="M92.98 0C41.63 0 0 41.62 0 92.97C0 127.47 18.8 157.59 46.71 173.64C47.95 174.35 49.21 175.03 50.48 175.69C63.22 182.25 77.67 185.95 92.98 185.95C108.29 185.95 122.75 182.25 135.48 175.68C136.75 175.03 138.01 174.35 139.24 173.64C167.15 157.59 185.95 127.47 185.95 92.97C185.95 41.62 144.32 0 92.98 0Z" fill="white"/>
<path d="M135.682 67.0352H49.2073C46.9815 67.0352 45.1763 68.8695 45.1763 71.1385V120.066C45.1763 122.326 46.9815 124.169 49.2073 124.169H135.744C137.97 124.169 139.775 122.335 139.775 120.066V71.208C139.775 68.9043 137.943 67.0438 135.682 67.0438V67.0352Z" fill="black" stroke="black" stroke-width="3" stroke-miterlimit="10"/>
<path d="M112.613 98.8799C117.786 98.8799 121.979 94.6865 121.979 89.5137C121.979 84.3408 117.786 80.1475 112.613 80.1475C107.44 80.1475 103.247 84.3408 103.247 89.5137C103.247 94.6865 107.44 98.8799 112.613 98.8799Z" stroke="white" stroke-width="3" stroke-miterlimit="10"/>
<path d="M98.9414 99.8174C99.2763 99.8174 99.5319 100.107 99.4966 100.441C99.1793 103.772 96.3677 106.374 92.948 106.374C89.5282 106.374 86.7078 103.772 86.3905 100.441C86.3552 100.107 86.6108 99.8174 86.9457 99.8174H98.9325H98.9414Z" stroke="white" stroke-width="3" stroke-miterlimit="10"/>
<path d="M129.93 164.957C118.708 170.796 105.961 174.085 92.4648 174.085C78.9687 174.085 66.2306 170.796 55 164.966C62.8985 144.535 76.7208 131 92.4648 131C108.209 131 122.022 144.535 129.93 164.957Z" fill="black" stroke="black" stroke-width="3" stroke-miterlimit="10"/>
<path d="M74.2114 98.8799C79.3842 98.8799 83.5776 94.6865 83.5776 89.5137C83.5776 84.3408 79.3842 80.1475 74.2114 80.1475C69.0386 80.1475 64.8452 84.3408 64.8452 89.5137C64.8452 94.6865 69.0386 98.8799 74.2114 98.8799Z" stroke="white" stroke-width="3" stroke-miterlimit="10"/>
<path d="M148.268 75.4648L153.351 82.4372C153.697 82.9156 153.887 83.5091 153.887 84.1116V107.093C153.887 107.695 153.697 108.289 153.351 108.767L148.268 115.739" fill="black"/>
<path d="M148.268 75.4648L153.351 82.4372C153.697 82.9156 153.887 83.5091 153.887 84.1116V107.093C153.887 107.695 153.697 108.289 153.351 108.767L148.268 115.739" stroke="black" stroke-width="3" stroke-miterlimit="10"/>
<path d="M36.6197 115.739L31.5364 108.767C31.1898 108.289 31 107.695 31 107.093V92.8558V84.1116C31 83.5091 31.1898 82.9156 31.5364 82.4372L36.6197 75.4648" fill="black"/>
<path d="M36.6197 115.739L31.5364 108.767C31.1898 108.289 31 107.695 31 107.093V92.8558V84.1116C31 83.5091 31.1898 82.9156 31.5364 82.4372L36.6197 75.4648" stroke="black" stroke-width="3" stroke-miterlimit="10"/>
<path d="M138.524 60.4785H46.4262C42.1146 60.4785 38.6196 63.9733 38.6196 68.2847V122.919C38.6196 127.23 42.1146 130.725 46.4262 130.725H138.524C142.836 130.725 146.331 127.23 146.331 122.919V68.2847C146.331 63.9733 142.836 60.4785 138.524 60.4785Z" stroke="white" stroke-width="9" stroke-miterlimit="10"/>
<path d="M138.524 60.4785H46.4262C42.1146 60.4785 38.6196 63.9733 38.6196 68.2847V122.919C38.6196 127.23 42.1146 130.725 46.4262 130.725H138.524C142.836 130.725 146.331 127.23 146.331 122.919V68.2847C146.331 63.9733 142.836 60.4785 138.524 60.4785Z" stroke="black" stroke-width="3" stroke-miterlimit="10"/>
<path d="M92.9438 45.493C95.0129 45.493 96.6902 43.8156 96.6902 41.7465C96.6902 39.6774 95.0129 38 92.9438 38C90.8746 38 89.1973 39.6774 89.1973 41.7465C89.1973 43.8156 90.8746 45.493 92.9438 45.493Z" fill="black" stroke="black" stroke-linecap="round" stroke-linejoin="round"/>
<path d="M92.9438 45.4932V50.1763" stroke="black" stroke-width="3" stroke-linecap="round" stroke-linejoin="round"/>
<path d="M71.4014 58.6056C72.27 57.0043 73.3514 55.5495 74.6012 54.2593C78.1645 50.5811 83.0929 48.3027 88.5353 48.3027H96.4153C103.755 48.3027 110.163 52.4477 113.549 58.6056" stroke="white" stroke-width="3" stroke-miterlimit="10"/>
<path d="M71.4014 60.4786C72.27 58.8774 73.3514 57.4225 74.6012 56.1324C78.1645 52.4541 83.0929 50.1758 88.5353 50.1758H96.4153C103.755 50.1758 110.163 54.3207 113.549 60.4786" fill="black"/>
<path d="M71.4014 60.4786C72.27 58.8774 73.3514 57.4225 74.6012 56.1324C78.1645 52.4541 83.0929 50.1758 88.5353 50.1758H96.4153C103.755 50.1758 110.163 54.3207 113.549 60.4786" stroke="black" stroke-width="3" stroke-miterlimit="10"/>
<circle cx="92.5" cy="93.5" r="82.5" stroke="black" stroke-width="6"/>
<path d="M92.7891 161.32H88.7731C88.7731 160.571 88.1672 159.953 87.4068 159.953C86.6464 159.953 86.0404 160.559 86.0404 161.32H82.0244C82.0244 158.349 84.4364 155.938 87.4068 155.938C90.3772 155.938 92.7891 158.349 92.7891 161.32Z" fill="white"/>
<path d="M103.542 142.013H99.5256C99.5256 142.761 98.9196 143.379 98.1592 143.379C97.3988 143.379 96.7928 142.773 96.7928 142.013H92.7769C92.7769 144.983 95.1888 147.395 98.1592 147.395C101.13 147.395 103.542 144.983 103.542 142.013Z" fill="white"/>
<path d="M97.791 153.703H97.8029C98.8128 153.703 99.6326 154.535 99.6089 155.557C99.5851 156.579 98.7533 157.303 97.7672 157.303H96.8761C94.6542 157.303 92.8601 159.098 92.8601 161.319H97.7316C100.94 161.319 103.601 158.765 103.625 155.557C103.66 152.325 101.035 149.687 97.8147 149.676L92.9076 149.64L87.8342 149.616H87.8223C86.8124 149.616 85.9926 148.784 86.0163 147.763C86.0401 146.776 86.8718 146.016 87.858 146.016H88.7491C90.9709 146.016 92.7651 144.222 92.7651 142H87.8936C84.6856 142 82.0241 144.555 82.0004 147.763C81.9647 150.971 84.5905 153.632 87.8104 153.644L93.074 153.668L97.791 153.692V153.703Z" fill="white"/>
</svg>
