<svg width="186" height="186" viewBox="0 0 186 186" fill="none" xmlns="http://www.w3.org/2000/svg">
<path d="M92.97 0C41.63 0 0 41.62 0 92.97C0 144.32 41.63 185.94 92.97 185.94C144.31 185.94 185.94 144.31 185.94 92.97C185.94 41.63 144.31 0 92.97 0Z" fill="#7135E5"/>
<path d="M135.794 67.6201H50.558C48.3261 67.6201 46.5181 69.4281 46.5181 71.66V118.954C46.5181 121.186 48.3261 122.994 50.558 122.994H135.794C138.026 122.994 139.834 121.186 139.834 118.954V71.66C139.834 69.4281 138.026 67.6201 135.794 67.6201Z" stroke="white" stroke-width="3" stroke-miterlimit="10"/>
<path d="M136.165 60.7002H50.194C44.6328 60.7002 40.1245 65.2084 40.1245 70.7697V119.837C40.1245 125.398 44.6328 129.906 50.194 129.906H136.165C141.726 129.906 146.235 125.398 146.235 119.837V70.7697C146.235 65.2084 141.726 60.7002 136.165 60.7002Z" stroke="white" stroke-width="3" stroke-miterlimit="10"/>
<path d="M75.8784 98.6338C80.9714 98.6338 85.1002 94.5051 85.1002 89.4121C85.1002 84.3191 80.9714 80.1904 75.8784 80.1904C70.7854 80.1904 66.6567 84.3191 66.6567 89.4121C66.6567 94.5051 70.7854 98.6338 75.8784 98.6338Z" fill="white"/>
<path d="M99.0621 99.6201C99.3908 99.6201 99.6417 99.9056 99.6071 100.234C99.2957 103.513 96.5361 106.074 93.1796 106.074C89.8231 106.074 87.0549 103.513 86.7434 100.234C86.7088 99.9056 86.9597 99.6201 87.2884 99.6201H99.0534H99.0621Z" fill="white"/>
<path d="M72.6084 60.6997C73.4562 59.1859 74.5116 57.8104 75.7313 56.5906C79.2089 53.113 84.0187 50.959 89.3303 50.959H97.0208C104.184 50.959 110.438 54.8778 113.743 60.6997" fill="white"/>
<path d="M72.6084 60.6997C73.4562 59.1859 74.5116 57.8104 75.7313 56.5906C79.2089 53.113 84.0187 50.959 89.3303 50.959H97.0208C104.184 50.959 110.438 54.8778 113.743 60.6997" stroke="white" stroke-width="3" stroke-miterlimit="10"/>
<path d="M146.459 75.6396L151.788 82.4478C152.152 82.9149 152.351 83.4945 152.351 84.0828V106.523C152.351 107.111 152.152 107.691 151.788 108.158L146.459 114.966" fill="white"/>
<path d="M146.459 75.6396L151.788 82.4478C152.152 82.9149 152.351 83.4945 152.351 84.0828V106.523C152.351 107.111 152.152 107.691 151.788 108.158L146.459 114.966" stroke="white" stroke-width="3" stroke-miterlimit="10"/>
<path d="M39.8912 114.966L34.5623 108.158C34.199 107.691 34 107.111 34 106.523V92.6211V84.0828C34 83.4945 34.199 82.9149 34.5623 82.4478L39.8912 75.6396" fill="white"/>
<path d="M39.8912 114.966L34.5623 108.158C34.199 107.691 34 107.111 34 106.523V92.6211V84.0828C34 83.4945 34.199 82.9149 34.5623 82.4478L39.8912 75.6396" stroke="white" stroke-width="3" stroke-miterlimit="10"/>
<path d="M110.481 98.6338C115.574 98.6338 119.703 94.5051 119.703 89.4121C119.703 84.3191 115.574 80.1904 110.481 80.1904C105.388 80.1904 101.26 84.3191 101.26 89.4121C101.26 94.5051 105.388 98.6338 110.481 98.6338Z" fill="white"/>
<path d="M129.539 164.466C118.526 170.21 106.017 173.445 92.773 173.445C79.5287 173.445 67.0284 170.21 56.0073 164.474C63.7584 144.373 77.3228 131.057 92.773 131.057C108.223 131.057 121.779 144.373 129.539 164.466Z" fill="white" stroke="white" stroke-width="3" stroke-miterlimit="10"/>
<path d="M93.107 161.249H89.091C89.091 160.5 88.4851 159.882 87.7247 159.882C86.9643 159.882 86.3583 160.488 86.3583 161.249H82.3423C82.3423 158.278 84.7543 155.866 87.7247 155.866C90.6951 155.866 93.107 158.278 93.107 161.249Z" fill="#7135E5"/>
<path d="M103.859 141.941H99.8435C99.8435 142.69 99.2375 143.308 98.477 143.308C97.7166 143.308 97.1106 142.702 97.1106 141.941H93.0947C93.0947 144.912 95.5067 147.324 98.477 147.324C101.447 147.324 103.859 144.912 103.859 141.941Z" fill="#7135E5"/>
<path d="M98.1088 153.632H98.1207C99.1307 153.632 99.9505 154.464 99.9267 155.486C99.903 156.507 99.0712 157.232 98.085 157.232H97.1939C94.9721 157.232 93.1779 159.026 93.1779 161.248H98.0494C101.257 161.248 103.919 158.694 103.943 155.486C103.978 152.254 101.353 149.616 98.1326 149.604L93.2255 149.569L88.1521 149.545H88.1402C87.1302 149.545 86.3104 148.713 86.3342 147.691C86.358 146.705 87.1897 145.945 88.1758 145.945H89.067C91.2888 145.945 93.0829 144.151 93.0829 141.929H88.2114C85.0034 141.929 82.342 144.483 82.3182 147.691C82.2826 150.899 84.9084 153.561 88.1283 153.573L93.3919 153.596L98.1088 153.62V153.632Z" fill="#7135E5"/>
<path d="M93.1796 45.2839C95.191 45.2839 96.8216 43.6534 96.8216 41.642C96.8216 39.6306 95.191 38 93.1796 38C91.1682 38 89.5376 39.6306 89.5376 41.642C89.5376 43.6534 91.1682 45.2839 93.1796 45.2839Z" fill="white" stroke="white" stroke-linecap="round" stroke-linejoin="round"/>
<path d="M93.1797 45.2832V55.4046" stroke="white" stroke-width="3" stroke-linecap="round" stroke-linejoin="round"/>
<circle cx="92.5" cy="93.5" r="82.5" stroke="white" stroke-width="6"/>
</svg>
