<svg width="186" height="186" viewBox="0 0 186 186" fill="none" xmlns="http://www.w3.org/2000/svg">
<path d="M92.97 0C41.63 0 0 41.62 0 92.97C0 144.32 41.63 185.94 92.97 185.94C144.31 185.94 185.94 144.31 185.94 92.97C185.94 41.63 144.31 0 92.97 0Z" fill="black"/>
<circle cx="92.5" cy="93.5" r="82.5" stroke="white" stroke-width="6"/>
<path d="M135.793 67.6201H50.5575C48.3256 67.6201 46.5176 69.4281 46.5176 71.66V118.954C46.5176 121.186 48.3256 122.994 50.5575 122.994H135.793C138.025 122.994 139.833 121.186 139.833 118.954V71.66C139.833 69.4281 138.025 67.6201 135.793 67.6201Z" stroke="white" stroke-width="3" stroke-miterlimit="10"/>
<path d="M136.165 60.7002H50.194C44.6328 60.7002 40.1245 65.2084 40.1245 70.7697V119.837C40.1245 125.398 44.6328 129.906 50.194 129.906H136.165C141.726 129.906 146.235 125.398 146.235 119.837V70.7697C146.235 65.2084 141.726 60.7002 136.165 60.7002Z" stroke="white" stroke-width="3" stroke-miterlimit="10"/>
<path d="M75.8779 98.6338C80.9709 98.6338 85.0997 94.5051 85.0997 89.4121C85.0997 84.3191 80.9709 80.1904 75.8779 80.1904C70.7849 80.1904 66.6562 84.3191 66.6562 89.4121C66.6562 94.5051 70.7849 98.6338 75.8779 98.6338Z" fill="white"/>
<path d="M99.0616 99.6201C99.3903 99.6201 99.6412 99.9056 99.6066 100.234C99.2952 103.513 96.5356 106.074 93.1791 106.074C89.8226 106.074 87.0544 103.513 86.7429 100.234C86.7083 99.9056 86.9592 99.6201 87.2879 99.6201H99.0529H99.0616Z" fill="white"/>
<path d="M72.6079 60.6997C73.4557 59.1859 74.5111 57.8104 75.7308 56.5906C79.2084 53.113 84.0182 50.959 89.3298 50.959H97.0203C104.183 50.959 110.438 54.8778 113.742 60.6997" fill="white"/>
<path d="M72.6079 60.6997C73.4557 59.1859 74.5111 57.8104 75.7308 56.5906C79.2084 53.113 84.0182 50.959 89.3298 50.959H97.0203C104.183 50.959 110.438 54.8778 113.742 60.6997" stroke="white" stroke-width="3" stroke-miterlimit="10"/>
<path d="M146.459 75.6396L151.788 82.4478C152.151 82.9149 152.35 83.4945 152.35 84.0828V106.523C152.35 107.111 152.151 107.691 151.788 108.158L146.459 114.966" fill="white"/>
<path d="M146.459 75.6396L151.788 82.4478C152.151 82.9149 152.35 83.4945 152.35 84.0828V106.523C152.35 107.111 152.151 107.691 151.788 108.158L146.459 114.966" stroke="white" stroke-width="3" stroke-miterlimit="10"/>
<path d="M39.8907 114.966L34.5618 108.158C34.1985 107.691 33.9995 107.111 33.9995 106.523V92.6211V84.0828C33.9995 83.4945 34.1985 82.9149 34.5618 82.4478L39.8907 75.6396" fill="white"/>
<path d="M39.8907 114.966L34.5618 108.158C34.1985 107.691 33.9995 107.111 33.9995 106.523V92.6211V84.0828C33.9995 83.4945 34.1985 82.9149 34.5618 82.4478L39.8907 75.6396" stroke="white" stroke-width="3" stroke-miterlimit="10"/>
<path d="M110.481 98.6338C115.574 98.6338 119.703 94.5051 119.703 89.4121C119.703 84.3191 115.574 80.1904 110.481 80.1904C105.388 80.1904 101.259 84.3191 101.259 89.4121C101.259 94.5051 105.388 98.6338 110.481 98.6338Z" fill="white"/>
<path d="M129.539 164.466C118.526 170.21 106.017 173.445 92.773 173.445C79.5287 173.445 67.0284 170.21 56.0073 164.474C63.7584 144.373 77.3228 131.057 92.773 131.057C108.223 131.057 121.779 144.373 129.539 164.466Z" fill="white" stroke="white" stroke-width="3" stroke-miterlimit="10"/>
<path d="M93.1791 45.2839C95.1905 45.2839 96.8211 43.6534 96.8211 41.642C96.8211 39.6306 95.1905 38 93.1791 38C91.1677 38 89.5371 39.6306 89.5371 41.642C89.5371 43.6534 91.1677 45.2839 93.1791 45.2839Z" fill="white" stroke="white" stroke-linecap="round" stroke-linejoin="round"/>
<path d="M93.1792 45.2832V55.4046" stroke="white" stroke-width="3" stroke-linecap="round" stroke-linejoin="round"/>
<path d="M92.7891 161.32H88.7731C88.7731 160.571 88.1672 159.953 87.4068 159.953C86.6464 159.953 86.0404 160.559 86.0404 161.32H82.0244C82.0244 158.349 84.4364 155.938 87.4068 155.938C90.3772 155.938 92.7891 158.349 92.7891 161.32Z" fill="black"/>
<path d="M103.542 142.013H99.5256C99.5256 142.761 98.9196 143.379 98.1592 143.379C97.3988 143.379 96.7928 142.773 96.7928 142.013H92.7769C92.7769 144.983 95.1888 147.395 98.1592 147.395C101.13 147.395 103.542 144.983 103.542 142.013Z" fill="black"/>
<path d="M97.791 153.703H97.8029C98.8128 153.703 99.6326 154.535 99.6089 155.557C99.5851 156.579 98.7533 157.303 97.7672 157.303H96.8761C94.6542 157.303 92.8601 159.098 92.8601 161.319H97.7316C100.94 161.319 103.601 158.765 103.625 155.557C103.66 152.325 101.035 149.687 97.8147 149.676L92.9076 149.64L87.8342 149.616H87.8223C86.8124 149.616 85.9926 148.784 86.0163 147.763C86.0401 146.776 86.8718 146.016 87.858 146.016H88.7491C90.9709 146.016 92.7651 144.222 92.7651 142H87.8936C84.6856 142 82.0241 144.555 82.0004 147.763C81.9647 150.971 84.5905 153.632 87.8104 153.644L93.074 153.668L97.791 153.692V153.703Z" fill="black"/>
</svg>
